<?xml version="1.0" standalone="no"?>
<!DOCTYPE svg PUBLIC "-//W3C//DTD SVG 20010904//EN"
 "http://www.w3.org/TR/2001/REC-SVG-20010904/DTD/svg10.dtd">
<svg version="1.0" xmlns="http://www.w3.org/2000/svg"
 width="595.000000pt" height="431.000000pt" viewBox="0 0 595.000000 431.000000"
 preserveAspectRatio="xMidYMid meet">

<g transform="translate(0.000000,431.000000) scale(0.100000,-0.100000)"
fill="#000000" stroke="none">
<path d="M2369 3477 c-30 -23 -279 -206 -552 -406 -440 -322 -498 -368 -511
-402 -14 -34 -16 -120 -16 -649 l0 -610 330 0 330 0 0 140 0 140 -190 0 -190
0 0 413 c1 310 4 418 13 434 12 21 136 115 649 490 l206 151 124 -90 c68 -49
124 -91 126 -93 2 -2 -82 -67 -188 -145 -120 -90 -197 -154 -207 -174 -15 -28
-18 -94 -21 -648 l-4 -618 661 0 662 0 -3 618 c-3 524 -5 621 -18 647 -9 19
-86 83 -207 173 l-193 144 127 93 127 93 51 -37 c27 -21 212 -156 410 -300
198 -145 370 -274 383 -288 l22 -24 0 -420 0 -419 -185 0 -185 0 0 -140 0
-140 325 0 325 0 0 615 c0 503 -3 622 -14 649 -11 26 -90 89 -387 307 -664
488 -739 541 -752 536 -7 -2 -115 -80 -241 -172 -126 -91 -234 -168 -240 -171
-6 -2 -119 75 -250 171 -132 96 -244 175 -250 174 -6 0 -36 -19 -67 -42z m735
-786 c88 -65 170 -129 181 -141 19 -21 20 -39 23 -441 l3 -419 -375 0 -376 0
0 419 c0 384 1 421 18 440 24 29 334 259 351 260 7 1 86 -53 175 -118z"/>
<path d="M425 1166 c-85 -20 -147 -57 -216 -125 -78 -78 -114 -149 -131 -255
-36 -235 117 -461 351 -516 70 -17 180 -8 254 20 80 30 175 120 211 199 27 60
54 207 43 235 -6 14 -31 16 -187 16 l-180 0 0 -65 0 -65 110 0 c127 0 129 -2
81 -86 -52 -90 -130 -134 -239 -134 -53 0 -79 6 -118 25 -72 36 -125 85 -159
146 -28 50 -30 61 -30 159 0 97 2 109 29 158 34 60 85 111 148 144 36 19 58
23 138 23 111 0 155 -17 230 -91 l46 -44 44 45 44 45 -49 51 c-105 106 -270
152 -420 115z"/>
<path d="M3959 1068 c-69 -96 -71 -102 -53 -115 47 -36 47 -36 144 62 52 52
92 96 89 98 -11 9 -98 57 -103 57 -3 0 -37 -46 -77 -102z"/>
<path d="M4744 1118 c13 -24 79 -137 145 -253 l121 -209 0 -188 0 -188 65 0
65 0 0 189 0 188 121 209 c66 115 132 228 145 252 l25 42 -78 0 -78 -1 -100
-174 -99 -175 -21 34 c-12 19 -57 98 -101 175 l-79 140 -78 1 -78 0 25 -42z"/>
<path d="M3568 938 l-3 -103 -27 -3 c-27 -3 -28 -5 -28 -63 0 -59 0 -59 30
-59 l30 0 0 -215 0 -215 60 0 60 0 0 215 0 215 50 0 50 0 0 59 0 60 -47 3 -48
3 -3 103 -3 102 -59 0 -59 0 -3 -102z"/>
<path d="M1232 838 c-52 -18 -126 -91 -152 -150 -32 -74 -33 -192 -1 -263 69
-155 242 -210 375 -120 l36 24 0 -24 c0 -24 3 -25 65 -25 l65 0 0 275 0 275
-65 0 c-62 0 -65 -1 -65 -25 l0 -24 -51 31 c-41 26 -63 33 -112 35 -34 1 -77
-3 -95 -9z m208 -144 c47 -43 65 -96 56 -168 -10 -91 -68 -146 -154 -146 -94
0 -152 67 -152 175 0 110 58 175 156 175 48 0 58 -4 94 -36z"/>
<path d="M1990 843 c-8 -3 -27 -14 -42 -24 -32 -23 -38 -24 -38 -4 0 12 -14
15 -65 15 l-65 0 0 -275 0 -275 65 0 65 0 0 158 c0 86 4 174 9 195 18 74 75
108 139 82 l32 -14 30 59 29 58 -40 16 c-39 16 -90 20 -119 9z"/>
<path d="M2380 841 c-115 -35 -180 -128 -188 -266 -3 -65 0 -91 18 -139 62
-163 246 -227 377 -130 40 30 43 30 43 -1 0 -24 2 -25 65 -25 l65 0 0 275 0
275 -65 0 c-63 0 -65 -1 -65 -25 0 -26 -14 -33 -26 -14 -3 6 -30 22 -58 35
-52 24 -116 30 -166 15z m180 -133 c48 -33 70 -81 70 -153 0 -109 -58 -175
-153 -175 -90 0 -144 54 -154 154 -7 70 9 117 58 160 34 32 45 36 93 36 39 0
62 -6 86 -22z"/>
<path d="M3120 835 c-19 -9 -42 -23 -52 -32 -17 -15 -18 -15 -18 5 0 20 -5 22
-65 22 l-65 0 0 -275 0 -275 65 0 65 0 0 175 c0 238 15 274 116 275 42 0 55
-5 75 -26 23 -25 24 -30 27 -225 l4 -199 65 0 65 0 -4 217 c-3 202 -5 221 -25
259 -12 23 -39 52 -58 64 -48 29 -146 37 -195 15z"/>
<path d="M4340 841 c-115 -35 -180 -128 -188 -266 -3 -65 0 -91 18 -139 62
-163 246 -227 377 -130 40 30 43 30 43 -1 0 -24 2 -25 65 -25 l65 0 0 275 0
275 -65 0 c-63 0 -65 -1 -65 -25 0 -26 -14 -33 -26 -14 -3 6 -30 22 -58 35
-52 24 -116 30 -166 15z m180 -133 c48 -33 70 -81 70 -153 0 -109 -58 -175
-153 -175 -90 0 -144 54 -154 154 -7 70 9 117 58 160 34 32 45 36 93 36 39 0
62 -6 86 -22z"/>
<path d="M5492 837 c-44 -14 -118 -81 -143 -129 -32 -62 -43 -142 -29 -212 14
-73 32 -110 74 -154 52 -56 101 -76 182 -77 63 0 77 4 122 32 l52 32 0 -24 c0
-24 3 -25 65 -25 l65 0 0 275 0 275 -64 0 c-62 0 -65 -1 -68 -26 l-3 -25 -35
26 c-59 43 -144 56 -218 32z m213 -149 c48 -48 62 -97 50 -176 -5 -37 -16 -56
-50 -89 -39 -40 -46 -43 -96 -43 -105 0 -159 59 -159 174 0 115 55 176 159
176 50 0 57 -3 96 -42z"/>
<path d="M3880 555 l0 -275 65 0 65 0 0 275 0 275 -65 0 -65 0 0 -275z"/>
</g>
</svg>
