<svg xmlns="http://www.w3.org/2000/svg" viewBox="0 0 224 125.36"><defs><style>.cls-1{fill:none;}.cls-2{fill:#fff;}</style></defs><title>hero-logo</title><g id="Layer_2" data-name="Layer 2"><g id="Layer_1-2" data-name="Layer 1"><rect class="cls-1" width="224" height="125.36"/><path class="cls-2" d="M21.47,106.13H35.23v1.1a22.73,22.73,0,0,1-.89,6.65,14,14,0,0,1-2.91,5,15.07,15.07,0,0,1-11.79,5.22,16.2,16.2,0,0,1-12-5A17.37,17.37,0,0,1,7.75,94.6a16.79,16.79,0,0,1,12.34-5.07,17,17,0,0,1,7.29,1.59,21.13,21.13,0,0,1,6.36,5.16l-3.58,3.43q-4.1-5.46-10-5.46a11.93,11.93,0,0,0-8.86,3.65,12.13,12.13,0,0,0-3.58,9,11.79,11.79,0,0,0,4,9.16,11.91,11.91,0,0,0,8.09,3.35,10,10,0,0,0,6.66-2.5,8.86,8.86,0,0,0,3.3-6h-8.3Z"/><path class="cls-2" d="M56.1,102.47H61v21H56.1v-2.2a9.31,9.31,0,0,1-13.65-.34,11.72,11.72,0,0,1-2.82-8A11.38,11.38,0,0,1,42.45,105a9.13,9.13,0,0,1,7.08-3.14,8.9,8.9,0,0,1,6.57,3ZM44.59,112.91a7.33,7.33,0,0,0,1.61,4.91,5.32,5.32,0,0,0,4.19,1.92,5.57,5.57,0,0,0,4.35-1.85,8,8,0,0,0,0-9.75,5.48,5.48,0,0,0-4.31-1.88,5.37,5.37,0,0,0-4.18,1.9A7,7,0,0,0,44.59,112.91Z"/><path class="cls-2" d="M67.1,102.47H72v1.87a9.35,9.35,0,0,1,2.38-1.91,5.39,5.39,0,0,1,2.5-.54,7.79,7.79,0,0,1,4,1.25l-2.22,4.44a4.64,4.64,0,0,0-2.7-1c-2.64,0-4,2-4,6v10.89H67.1Z"/><path class="cls-2" d="M98.8,102.47h4.88v21H98.8v-2.2a9.31,9.31,0,0,1-13.65-.34,11.72,11.72,0,0,1-2.82-8A11.38,11.38,0,0,1,85.15,105a9.14,9.14,0,0,1,7.08-3.14,8.9,8.9,0,0,1,6.57,3ZM87.29,112.91a7.29,7.29,0,0,0,1.62,4.91,5.28,5.28,0,0,0,4.18,1.92,5.59,5.59,0,0,0,4.36-1.85,8,8,0,0,0,0-9.75,5.51,5.51,0,0,0-4.32-1.88,5.37,5.37,0,0,0-4.18,1.9A7,7,0,0,0,87.29,112.91Z"/><path class="cls-2" d="M109.8,102.47h4.88v1.94a7.93,7.93,0,0,1,5.73-2.52,7.28,7.28,0,0,1,5.72,2.3q1.77,2,1.77,6.41v12.87H123V111.76c0-2.07-.28-3.5-.86-4.29a3.49,3.49,0,0,0-3.06-1.21,3.73,3.73,0,0,0-3.43,1.6q-1,1.58-1,5.49v10.12H109.8Z"/><path class="cls-2" d="M139,107v16.47h-4.85V107H132.1v-4.53h2.07v-7.7H139v7.7h3.78V107Z"/><path class="cls-2" d="M151,102.47v21H146.1v-21Zm5.18-10.35L149,99.23l-2.68-1.64,5.46-7.85Z"/><path class="cls-2" d="M172.58,102.47h4.87v21h-4.87v-2.2a9.31,9.31,0,0,1-13.65-.34,11.73,11.73,0,0,1-2.83-8,11.39,11.39,0,0,1,2.83-7.88,9.12,9.12,0,0,1,7.07-3.14,8.9,8.9,0,0,1,6.58,3Zm-11.52,10.44a7.29,7.29,0,0,0,1.62,4.91,5.3,5.3,0,0,0,4.19,1.92,5.57,5.57,0,0,0,4.35-1.85,8,8,0,0,0,0-9.75,5.48,5.48,0,0,0-4.31-1.88,5.37,5.37,0,0,0-4.18,1.9A7,7,0,0,0,161.06,112.91Z"/><path class="cls-2" d="M188.46,109.09,177.59,90.18h5.78l7.62,13.3,7.63-13.3h5.78l-10.91,18.91v14.38h-5Z"/><path class="cls-2" d="M216.44,102.47h4.87v21h-4.87v-2.2a9.32,9.32,0,0,1-13.66-.34,11.72,11.72,0,0,1-2.82-8,11.38,11.38,0,0,1,2.82-7.88,9.16,9.16,0,0,1,7.08-3.14,8.92,8.92,0,0,1,6.58,3Zm-11.52,10.44a7.29,7.29,0,0,0,1.62,4.91,5.28,5.28,0,0,0,4.18,1.92,5.59,5.59,0,0,0,4.36-1.85,8,8,0,0,0,0-9.75,5.51,5.51,0,0,0-4.32-1.88,5.38,5.38,0,0,0-4.18,1.9A7,7,0,0,0,204.92,112.91Z"/><path class="cls-2" d="M135,35.93c0-1.44-.56-3.44-1.58-4.2C119.63,21.48,105.71,11.38,91.75,1.18c-14,10.2-27.88,20.3-41.63,30.55-1,.76-1.56,2.76-1.58,4.2-.12,11.4-.07,22.8-.06,34.21V80.9H73.24V70.33H59.09c0-10.52,0-20.66.06-30.8a3.48,3.48,0,0,1,1.33-2.33C70.84,29.54,81.25,22,91.75,14.26,102.26,22,112.67,29.54,123,37.2a3.44,3.44,0,0,1,1.33,2.33c.09,10.14.06,20.28.06,30.8H110.27V80.9H135V70.14C135,58.73,135.08,47.33,135,35.93Z"/><path class="cls-2" d="M172.05,35.93c0-1.44-.55-3.44-1.58-4.2C156.72,21.48,142.8,11.38,128.85,1.18c-14,10.2-27.88,20.3-41.63,30.55-1,.76-1.57,2.76-1.58,4.2-.13,11.4-.07,22.8-.07,34.21V80.9h24.76V70.33H96.18c0-10.52,0-20.66.06-30.8a3.48,3.48,0,0,1,1.33-2.33c10.36-7.66,20.77-15.25,31.28-22.94,10.5,7.69,20.91,15.28,31.27,22.94a3.48,3.48,0,0,1,1.33,2.33c.09,10.14.06,20.28.06,30.8H147.36V80.9h24.76V70.14C172.12,58.73,172.18,47.33,172.05,35.93Z"/></g></g></svg>